<svg data-v-423bf9ae="" xmlns="http://www.w3.org/2000/svg" viewBox="0 0 416.1600119850852 60" class="font"><!----><!----><!----><g data-v-423bf9ae="" id="e112b44c-94c6-4dad-b7d1-dead3fdda7ec" fill="#EBC246" transform="matrix(4.363636493682861,0,0,4.363636493682861,-2.749105930328369,-15.578182220458984)"><path d="M0.63 14.35L5.07 14.35L5.07 13.48L3.72 13.48L3.72 10.04L5.88 10.04C7.90 10.04 8.99 9.02 8.99 7.31C8.99 5.42 7.90 4.58 5.88 4.58L0.63 4.58L0.63 5.45L1.64 5.45L1.64 13.48L0.63 13.48ZM3.72 5.53L5.31 5.53C6.29 5.53 6.85 6.03 6.85 6.96L6.85 7.66C6.85 8.58 6.29 9.09 5.31 9.09L3.72 9.09ZM12.11 14.52C13.43 14.52 13.94 13.87 14.22 13.26L14.28 13.26L14.28 13.29C14.28 13.99 14.69 14.52 15.65 14.52C16.18 14.52 16.70 14.41 17.01 14.22L17.01 13.48L16.11 13.48L16.11 9.31C16.11 7.77 15.15 6.87 13.19 6.87C11.19 6.87 10.12 7.76 10.12 8.64C10.12 9.24 10.53 9.63 11.07 9.63C11.75 9.63 12.11 9.24 12.11 8.68C12.11 8.27 11.87 8.04 11.68 7.94L11.68 7.87C11.90 7.77 12.21 7.71 12.61 7.71C13.69 7.71 14.14 8.30 14.14 9.44L14.14 10.29L13.13 10.29C10.91 10.29 9.84 11.03 9.84 12.45C9.84 13.75 10.54 14.52 12.11 14.52ZM12.89 13.36C12.24 13.36 11.82 13.06 11.82 12.45L11.82 12.21C11.82 11.48 12.28 11.07 13.34 11.07L14.14 11.07L14.14 12.24C14.14 13.05 13.62 13.36 12.89 13.36ZM21.15 14.52C22.36 14.52 23.03 13.86 23.28 13.16L23.35 13.16L23.35 14.52L26.18 13.96L26.18 13.22L25.28 13.03L25.28 6.87L22.41 7.43L22.41 8.18L23.31 8.36L23.31 12.08C23.31 12.89 22.60 13.24 21.90 13.24C20.99 13.24 20.62 12.77 20.62 11.72L20.62 6.87L17.75 7.43L17.75 8.18L18.65 8.36L18.65 11.80C18.65 13.61 19.32 14.52 21.15 14.52ZM27.02 14.35L30.79 14.35L30.79 13.48L29.89 13.48L29.89 3.57L27.02 4.13L27.02 4.87L27.92 5.05L27.92 13.48L27.02 13.48ZM38.92 14.52C41.17 14.52 42.53 13.24 42.53 11.48C42.53 9.76 41.38 8.88 39.47 8.46L38.84 8.33C37.48 8.04 36.96 7.66 36.96 6.79C36.96 6.02 37.56 5.39 38.86 5.39C40.10 5.39 40.81 5.82 40.81 6.79L40.81 7.41L42.35 7.41L42.35 4.58L40.81 4.58L40.81 5.36L40.75 5.36C40.50 4.91 39.80 4.41 38.65 4.41C36.55 4.41 35.31 5.56 35.31 7.21C35.31 9.11 36.58 9.98 38.49 10.39L39.16 10.53C40.40 10.79 40.80 11.19 40.80 12.03C40.80 12.92 40.15 13.54 38.78 13.54C37.45 13.54 36.74 13.08 36.74 12.10L36.74 11.48L35.20 11.48L35.20 14.35L36.74 14.35L36.74 13.54L36.79 13.54C37.04 14 37.77 14.52 38.92 14.52ZM43.67 17.15L47.71 17.15L47.71 16.28L46.54 16.28L46.54 13.29L46.61 13.29C46.87 13.94 47.52 14.52 48.64 14.52C50.47 14.52 51.63 13.03 51.63 10.70C51.63 8.36 50.47 6.87 48.64 6.87C47.52 6.87 46.89 7.46 46.61 8.12L46.54 8.12L46.54 6.87L43.67 7.43L43.67 8.18L44.56 8.36L44.56 16.28L43.67 16.28ZM47.98 13.33C47.19 13.33 46.54 12.81 46.54 12.01L46.54 9.38C46.54 8.58 47.19 8.06 47.98 8.06C48.89 8.06 49.53 8.71 49.53 9.83L49.53 11.56C49.53 12.68 48.89 13.33 47.98 13.33ZM52.81 14.35L56.85 14.35L56.85 13.48L55.68 13.48L55.68 9.28C55.68 8.64 56.35 7.85 56.98 7.85C57.05 7.85 57.12 7.87 57.16 7.88L57.18 7.94C57.02 7.99 56.90 8.22 56.90 8.47C56.90 8.96 57.26 9.35 57.92 9.35C58.59 9.35 58.98 8.93 58.98 8.22C58.98 7.38 58.41 6.87 57.50 6.87C56.55 6.87 55.97 7.50 55.71 8.23L55.64 8.23L55.64 6.87L52.81 7.43L52.81 8.18L53.70 8.36L53.70 13.48L52.81 13.48ZM61.59 5.91C62.31 5.91 62.75 5.47 62.75 4.82L62.75 4.75C62.75 4.09 62.31 3.65 61.59 3.65C60.86 3.65 60.42 4.09 60.42 4.75L60.42 4.82C60.42 5.47 60.86 5.91 61.59 5.91ZM59.71 14.35L63.48 14.35L63.48 13.48L62.58 13.48L62.58 6.87L59.71 7.43L59.71 8.18L60.61 8.36L60.61 13.48L59.71 13.48ZM64.44 14.35L68.17 14.35L68.17 13.48L67.31 13.48L67.31 9.31C67.31 8.50 68.03 8.15 68.73 8.15C69.62 8.15 70 8.61 70 9.66L70 13.48L69.15 13.48L69.15 14.35L72.87 14.35L72.87 13.48L71.97 13.48L71.97 9.59C71.97 7.78 71.30 6.87 69.47 6.87C68.26 6.87 67.59 7.53 67.34 8.23L67.27 8.23L67.27 6.87L64.44 7.43L64.44 8.18L65.34 8.36L65.34 13.48L64.44 13.48ZM77.21 17.32C79.84 17.32 81.13 16.39 81.13 14.88C81.13 13.66 80.33 12.87 78.34 12.87L76.69 12.87C75.98 12.87 75.70 12.68 75.70 12.28C75.70 12.00 75.89 11.75 76.22 11.59C76.52 11.66 76.86 11.70 77.22 11.70C79.07 11.70 80.33 10.82 80.33 9.28C80.33 8.51 80.04 7.99 79.59 7.62L79.59 7.15L79.65 7.15C79.83 7.38 80.12 7.48 80.43 7.48C80.99 7.48 81.34 7.14 81.34 6.64C81.34 6.09 80.99 5.78 80.40 5.78C79.62 5.78 79.16 6.24 79.09 7.29C78.55 7.00 77.92 6.87 77.22 6.87C75.38 6.87 74.12 7.76 74.12 9.28C74.12 10.33 74.69 11.05 75.63 11.42L75.63 11.48C74.86 11.66 74.20 12.11 74.20 12.95C74.20 13.66 74.62 14.14 75.28 14.29L75.28 14.35C74.40 14.50 73.68 14.97 73.68 15.68C73.68 16.69 74.51 17.32 77.21 17.32ZM77.22 10.81C76.44 10.81 76.06 10.36 76.06 9.48L76.06 9.10C76.06 8.22 76.44 7.77 77.22 7.77C78.01 7.77 78.39 8.22 78.39 9.10L78.39 9.48C78.39 10.36 78.01 10.81 77.22 10.81ZM75.29 15.53C75.29 15.09 75.45 14.83 75.80 14.60L78.18 14.60C79.09 14.60 79.52 14.80 79.52 15.43C79.52 16.10 78.90 16.45 77.74 16.45L76.89 16.45C75.81 16.45 75.29 16.14 75.29 15.53ZM85.43 14.52C87.25 14.52 88.20 13.41 88.54 12.49L87.82 12.05C87.53 12.73 86.88 13.24 85.83 13.24C84.69 13.24 83.93 12.53 83.93 11.23L83.93 10.71L88.70 10.71L88.70 10.26C88.70 8.20 87.40 6.87 85.32 6.87C83.24 6.87 81.83 8.34 81.83 10.68C81.83 12.92 83.13 14.52 85.43 14.52ZM83.93 9.67C83.93 8.36 84.43 7.77 85.30 7.77C86.17 7.77 86.67 8.36 86.67 9.67L86.67 9.87L83.93 9.87ZM89.82 14.35L93.87 14.35L93.87 13.48L92.69 13.48L92.69 9.28C92.69 8.64 93.37 7.85 94.00 7.85C94.07 7.85 94.14 7.87 94.18 7.88L94.19 7.94C94.04 7.99 93.91 8.22 93.91 8.47C93.91 8.96 94.28 9.35 94.93 9.35C95.61 9.35 96.00 8.93 96.00 8.22C96.00 7.38 95.42 6.87 94.51 6.87C93.56 6.87 92.99 7.50 92.72 8.23L92.65 8.23L92.65 6.87L89.82 7.43L89.82 8.18L90.72 8.36L90.72 13.48L89.82 13.48Z"></path></g><!----><!----></svg>